<?xml version="1.0" encoding="UTF-8"?>
<svg xmlns="http://www.w3.org/2000/svg" xmlns:xlink="http://www.w3.org/1999/xlink" width="32px" height="32px" viewBox="0 0 32 32" version="1.1">
<g id="surface1">
<path style=" stroke:none;fill-rule:nonzero;fill:rgb(0%,0%,0%);fill-opacity:1;" d="M 0 16 L 0 32 L 32 32 L 32 0 L 0 0 Z M 13.636719 10.773438 C 13.894531 10.800781 14.078125 10.871094 14.191406 10.976562 C 14.222656 11.007812 14.394531 11.230469 14.578125 11.472656 C 14.941406 11.960938 15.222656 12.332031 15.421875 12.585938 C 15.492188 12.675781 15.570312 12.78125 15.597656 12.820312 C 15.628906 12.863281 15.652344 12.886719 15.660156 12.878906 C 15.667969 12.871094 15.667969 12.667969 15.664062 12.390625 L 15.65625 11.914062 L 15.617188 11.90625 C 15.5625 11.894531 15.441406 11.785156 15.40625 11.71875 C 15.371094 11.648438 15.367188 11.496094 15.398438 11.40625 C 15.425781 11.332031 15.507812 11.242188 15.597656 11.191406 C 15.648438 11.160156 15.679688 11.152344 15.761719 11.152344 C 15.875 11.148438 15.953125 11.183594 16.035156 11.265625 C 16.109375 11.339844 16.136719 11.398438 16.144531 11.511719 C 16.15625 11.679688 16.074219 11.820312 15.914062 11.890625 L 15.835938 11.925781 L 15.835938 12.578125 C 15.835938 12.933594 15.839844 13.238281 15.847656 13.25 C 15.863281 13.292969 15.894531 13.277344 15.949219 13.1875 C 16.015625 13.089844 16.296875 12.710938 16.332031 12.679688 C 16.351562 12.65625 16.367188 12.664062 16.507812 12.765625 C 16.59375 12.828125 16.664062 12.886719 16.664062 12.894531 C 16.667969 12.902344 16.589844 13 16.5 13.117188 C 16.40625 13.230469 16.289062 13.378906 16.238281 13.449219 C 16.191406 13.515625 16.125 13.601562 16.097656 13.636719 C 16.066406 13.671875 16.042969 13.703125 16.042969 13.707031 C 16.042969 13.730469 16.535156 14.386719 16.546875 14.386719 C 16.550781 14.386719 16.59375 14.328125 16.644531 14.257812 L 16.726562 14.136719 L 16.726562 13.425781 C 16.726562 13.035156 16.722656 12.671875 16.71875 12.613281 C 16.707031 12.511719 16.707031 12.507812 16.664062 12.496094 C 16.558594 12.476562 16.445312 12.292969 16.445312 12.140625 C 16.445312 12.035156 16.523438 11.902344 16.628906 11.828125 C 16.710938 11.773438 16.71875 11.769531 16.835938 11.769531 C 16.929688 11.769531 16.96875 11.777344 17.015625 11.804688 C 17.199219 11.902344 17.273438 12.132812 17.179688 12.332031 C 17.140625 12.417969 17.074219 12.480469 16.976562 12.519531 L 16.910156 12.546875 L 16.90625 13.230469 C 16.90625 13.609375 16.90625 13.929688 16.910156 13.941406 C 16.917969 13.957031 16.933594 13.9375 16.960938 13.886719 C 17 13.816406 17.15625 13.59375 17.289062 13.429688 C 17.320312 13.386719 17.480469 13.171875 17.644531 12.949219 C 17.808594 12.722656 18.050781 12.394531 18.183594 12.214844 C 18.316406 12.035156 18.445312 11.859375 18.46875 11.820312 C 18.496094 11.785156 18.527344 11.742188 18.542969 11.730469 C 18.570312 11.707031 18.570312 11.683594 18.570312 11.441406 L 18.570312 11.179688 L 18.277344 11.171875 L 17.984375 11.171875 L 17.917969 11.234375 C 17.855469 11.289062 17.707031 11.484375 17.535156 11.726562 C 17.503906 11.773438 17.476562 11.808594 17.46875 11.808594 C 17.464844 11.808594 17.402344 11.761719 17.335938 11.703125 C 17.265625 11.644531 17.203125 11.601562 17.191406 11.601562 C 17.148438 11.601562 17.15625 11.566406 17.203125 11.511719 C 17.234375 11.480469 17.265625 11.4375 17.277344 11.417969 C 17.308594 11.359375 17.527344 11.0625 17.589844 10.992188 C 17.765625 10.808594 18.003906 10.753906 18.636719 10.753906 L 18.976562 10.753906 L 18.972656 13.820312 C 18.96875 15.738281 18.964844 16.894531 18.957031 16.898438 C 18.945312 16.90625 18.613281 16.910156 18.210938 16.90625 L 17.480469 16.902344 L 17.484375 16.382812 L 17.484375 15.863281 L 17.566406 15.777344 C 17.664062 15.679688 17.722656 15.601562 17.769531 15.492188 C 17.8125 15.402344 17.820312 15.269531 17.785156 15.144531 C 17.761719 15.050781 17.644531 14.882812 17.558594 14.824219 C 17.523438 14.796875 17.492188 14.765625 17.488281 14.746094 C 17.484375 14.726562 17.480469 14.519531 17.484375 14.28125 C 17.488281 13.890625 17.484375 13.816406 17.460938 13.871094 C 17.460938 13.878906 17.359375 14.007812 17.242188 14.15625 C 17.125 14.300781 16.996094 14.464844 16.957031 14.515625 C 16.917969 14.566406 16.863281 14.632812 16.835938 14.65625 L 16.785156 14.707031 L 16.863281 14.824219 C 16.925781 14.910156 16.953125 14.9375 16.972656 14.933594 C 16.988281 14.933594 17.046875 14.929688 17.105469 14.925781 C 17.195312 14.925781 17.21875 14.933594 17.269531 14.964844 C 17.4375 15.078125 17.507812 15.226562 17.460938 15.378906 C 17.429688 15.492188 17.382812 15.554688 17.289062 15.609375 C 17.195312 15.667969 17.105469 15.683594 17.007812 15.660156 C 16.78125 15.605469 16.675781 15.367188 16.777344 15.140625 L 16.816406 15.054688 L 16.75 14.964844 C 16.710938 14.914062 16.675781 14.878906 16.667969 14.882812 C 16.636719 14.898438 16.136719 15.539062 16.007812 15.722656 C 15.964844 15.78125 15.929688 15.832031 15.925781 15.835938 C 15.914062 15.847656 15.785156 15.691406 15.730469 15.605469 C 15.710938 15.574219 15.664062 15.515625 15.628906 15.472656 C 15.59375 15.429688 15.542969 15.367188 15.515625 15.332031 C 15.472656 15.269531 15.402344 15.179688 14.984375 14.644531 C 14.769531 14.367188 14.519531 14.042969 14.441406 13.929688 C 14.398438 13.875 14.363281 13.828125 14.355469 13.824219 C 14.347656 13.820312 14.339844 14.011719 14.339844 14.308594 L 14.339844 14.800781 L 14.238281 14.800781 C 14.152344 14.800781 14.128906 14.804688 14.058594 14.851562 C 14.015625 14.878906 13.972656 14.902344 13.96875 14.902344 C 13.960938 14.902344 13.957031 14.855469 13.957031 14.796875 C 13.957031 14.621094 14.007812 14.636719 13.386719 14.636719 C 12.773438 14.636719 12.472656 14.648438 12.464844 14.671875 C 12.464844 14.679688 12.457031 14.707031 12.453125 14.730469 C 12.4375 14.792969 12.332031 14.902344 12.246094 14.941406 C 12.160156 14.980469 12.074219 14.988281 11.988281 14.957031 C 11.707031 14.859375 11.617188 14.527344 11.808594 14.324219 C 11.878906 14.253906 12.003906 14.191406 12.085938 14.191406 C 12.222656 14.191406 12.375 14.289062 12.445312 14.417969 L 12.476562 14.480469 L 13.214844 14.480469 L 13.949219 14.472656 L 13.957031 13.292969 L 13.871094 13.183594 C 13.824219 13.121094 13.671875 12.921875 13.535156 12.738281 C 13.394531 12.554688 13.277344 12.40625 13.269531 12.402344 C 13.265625 12.402344 13.257812 12.785156 13.257812 13.257812 L 13.257812 14.117188 L 13.070312 14.109375 C 12.964844 14.105469 12.871094 14.105469 12.863281 14.105469 C 12.847656 14.105469 12.84375 13.691406 12.84375 12.441406 C 12.84375 11.523438 12.847656 10.769531 12.855469 10.765625 C 12.871094 10.75 13.488281 10.753906 13.636719 10.773438 Z M 12.097656 15.136719 C 12.171875 15.171875 12.238281 15.242188 12.277344 15.324219 L 12.3125 15.394531 L 14.085938 15.394531 L 14.117188 15.328125 C 14.128906 15.292969 14.167969 15.246094 14.199219 15.214844 C 14.328125 15.105469 14.472656 15.078125 14.609375 15.152344 C 14.792969 15.246094 14.863281 15.457031 14.777344 15.636719 C 14.734375 15.734375 14.679688 15.785156 14.578125 15.832031 C 14.515625 15.863281 14.484375 15.871094 14.421875 15.863281 C 14.277344 15.847656 14.121094 15.730469 14.09375 15.621094 C 14.082031 15.578125 14.15625 15.578125 13.117188 15.582031 L 12.304688 15.585938 L 12.269531 15.65625 C 12.222656 15.75 12.191406 15.785156 12.085938 15.828125 C 11.964844 15.882812 11.871094 15.878906 11.753906 15.804688 C 11.628906 15.726562 11.582031 15.652344 11.574219 15.527344 C 11.566406 15.4375 11.570312 15.410156 11.613281 15.328125 C 11.660156 15.222656 11.742188 15.152344 11.847656 15.117188 C 11.917969 15.09375 12.027344 15.101562 12.097656 15.136719 Z M 14.234375 16.097656 L 14.332031 16.113281 L 14.332031 16.511719 C 14.332031 16.820312 14.328125 16.910156 14.316406 16.910156 C 14.304688 16.90625 13.96875 16.90625 13.570312 16.90625 L 12.84375 16.902344 L 12.84375 16 L 13.257812 16 L 13.261719 16.261719 L 13.265625 16.527344 L 13.613281 16.53125 L 13.957031 16.535156 L 13.957031 15.90625 L 14.042969 15.992188 C 14.128906 16.074219 14.140625 16.082031 14.234375 16.097656 Z M 22.75 18.605469 C 22.78125 18.617188 22.867188 18.652344 22.941406 18.6875 C 23.292969 18.855469 23.492188 19.222656 23.449219 19.621094 C 23.425781 19.878906 23.324219 20.074219 23.152344 20.226562 C 23.0625 20.308594 22.90625 20.394531 22.820312 20.40625 L 22.761719 20.417969 L 22.816406 20.464844 C 22.859375 20.503906 22.886719 20.515625 22.957031 20.527344 C 23.058594 20.535156 23.09375 20.527344 23.21875 20.433594 C 23.28125 20.394531 23.292969 20.386719 23.3125 20.402344 C 23.351562 20.433594 23.511719 20.632812 23.511719 20.648438 C 23.511719 20.664062 23.34375 20.792969 23.277344 20.828125 C 23.261719 20.835938 23.226562 20.84375 23.203125 20.84375 C 23.183594 20.84375 23.136719 20.855469 23.105469 20.867188 C 23.035156 20.890625 22.929688 20.894531 22.890625 20.875 C 22.871094 20.863281 22.824219 20.851562 22.785156 20.84375 C 22.730469 20.835938 22.683594 20.808594 22.617188 20.757812 C 22.503906 20.667969 22.378906 20.535156 22.363281 20.492188 C 22.351562 20.453125 22.335938 20.449219 22.1875 20.421875 C 22.050781 20.394531 21.96875 20.359375 21.855469 20.28125 C 21.671875 20.15625 21.546875 19.988281 21.496094 19.792969 C 21.453125 19.632812 21.453125 19.394531 21.488281 19.265625 C 21.585938 18.929688 21.855469 18.6875 22.214844 18.605469 C 22.347656 18.574219 22.640625 18.578125 22.75 18.605469 Z M 8.644531 18.667969 C 8.78125 18.921875 9.234375 19.675781 9.257812 19.6875 C 9.265625 19.6875 9.292969 19.652344 9.320312 19.605469 C 9.375 19.507812 9.824219 18.75 9.875 18.664062 L 9.910156 18.609375 L 10.09375 18.609375 L 10.28125 18.605469 L 10.285156 19.503906 C 10.285156 19.996094 10.285156 20.410156 10.289062 20.417969 C 10.289062 20.433594 10.234375 20.4375 10.070312 20.441406 L 9.851562 20.445312 L 9.851562 19.929688 C 9.851562 19.613281 9.847656 19.421875 9.839844 19.429688 C 9.832031 19.4375 9.777344 19.527344 9.71875 19.628906 C 9.621094 19.800781 9.519531 19.96875 9.390625 20.179688 L 9.332031 20.265625 L 9.246094 20.265625 C 9.164062 20.265625 9.15625 20.265625 9.128906 20.21875 C 9.113281 20.191406 9.027344 20.050781 8.9375 19.902344 C 8.847656 19.757812 8.75 19.589844 8.71875 19.535156 C 8.6875 19.476562 8.65625 19.421875 8.648438 19.417969 C 8.644531 19.40625 8.636719 19.621094 8.636719 19.921875 L 8.636719 20.445312 L 8.222656 20.445312 L 8.222656 19.535156 C 8.222656 19.035156 8.226562 18.625 8.230469 18.617188 C 8.234375 18.613281 8.324219 18.609375 8.429688 18.613281 L 8.621094 18.613281 Z M 11.847656 18.710938 C 11.890625 18.796875 12.054688 19.148438 12.140625 19.347656 C 12.164062 19.394531 12.199219 19.46875 12.222656 19.519531 C 12.285156 19.648438 12.644531 20.414062 12.648438 20.429688 C 12.652344 20.441406 12.558594 20.441406 12.410156 20.441406 L 12.171875 20.4375 L 12.078125 20.25 L 11.988281 20.066406 L 11.605469 20.058594 C 11.316406 20.054688 11.214844 20.054688 11.199219 20.070312 C 11.1875 20.078125 11.144531 20.167969 11.105469 20.265625 L 11.03125 20.445312 L 10.796875 20.445312 C 10.667969 20.445312 10.5625 20.441406 10.5625 20.4375 C 10.5625 20.433594 10.582031 20.386719 10.609375 20.332031 C 10.632812 20.273438 10.699219 20.136719 10.75 20.023438 C 10.800781 19.90625 10.871094 19.75 10.910156 19.667969 C 10.949219 19.585938 11.050781 19.363281 11.132812 19.179688 C 11.21875 18.988281 11.3125 18.785156 11.339844 18.722656 L 11.394531 18.605469 L 11.800781 18.621094 Z M 14.011719 18.644531 C 14.277344 18.707031 14.449219 18.871094 14.507812 19.125 C 14.539062 19.261719 14.523438 19.410156 14.464844 19.539062 C 14.421875 19.632812 14.28125 19.785156 14.214844 19.808594 C 14.183594 19.816406 14.164062 19.828125 14.164062 19.832031 C 14.164062 19.835938 14.253906 19.972656 14.363281 20.132812 C 14.472656 20.296875 14.5625 20.433594 14.5625 20.4375 C 14.5625 20.441406 14.460938 20.445312 14.335938 20.445312 L 14.105469 20.445312 L 14.0625 20.394531 C 14.042969 20.367188 13.964844 20.265625 13.890625 20.160156 C 13.710938 19.902344 13.730469 19.914062 13.535156 19.90625 L 13.378906 19.902344 L 13.378906 20.445312 L 12.933594 20.445312 L 12.933594 18.621094 L 13.332031 18.621094 C 13.796875 18.613281 13.886719 18.617188 14.011719 18.644531 Z M 15.378906 19.019531 C 15.375 19.257812 15.378906 19.421875 15.386719 19.421875 C 15.394531 19.417969 15.480469 19.328125 15.578125 19.222656 C 15.675781 19.117188 15.84375 18.9375 15.953125 18.824219 L 16.15625 18.621094 L 16.667969 18.621094 L 16.515625 18.789062 C 16.433594 18.878906 16.265625 19.054688 16.148438 19.171875 C 15.949219 19.378906 15.9375 19.394531 15.953125 19.429688 C 15.960938 19.449219 16.054688 19.570312 16.15625 19.699219 C 16.257812 19.828125 16.390625 20 16.449219 20.078125 C 16.507812 20.160156 16.589844 20.269531 16.632812 20.320312 C 16.675781 20.375 16.710938 20.421875 16.710938 20.429688 C 16.710938 20.449219 16.222656 20.449219 16.199219 20.433594 C 16.183594 20.421875 15.984375 20.179688 15.828125 19.976562 C 15.773438 19.902344 15.703125 19.820312 15.675781 19.789062 L 15.625 19.730469 L 15.535156 19.824219 C 15.484375 19.878906 15.429688 19.925781 15.414062 19.933594 C 15.386719 19.949219 15.386719 19.964844 15.390625 20.199219 L 15.394531 20.445312 L 15.183594 20.445312 C 15.03125 20.445312 14.976562 20.441406 14.96875 20.425781 C 14.960938 20.398438 14.949219 18.769531 14.957031 18.691406 L 14.96875 18.625 L 15.132812 18.617188 C 15.222656 18.613281 15.316406 18.613281 15.339844 18.613281 L 15.386719 18.613281 Z M 18.367188 18.800781 L 18.371094 18.980469 L 17.910156 18.976562 L 17.453125 18.96875 L 17.453125 19.332031 L 18.265625 19.332031 L 18.265625 19.691406 L 17.859375 19.6875 C 17.382812 19.675781 17.433594 19.652344 17.441406 19.894531 L 17.445312 20.050781 L 18.421875 20.066406 L 18.421875 20.4375 L 17 20.4375 L 16.996094 19.539062 C 16.992188 19.046875 16.996094 18.636719 17 18.628906 C 17 18.621094 17.238281 18.617188 17.683594 18.617188 L 18.363281 18.621094 Z M 20.265625 18.769531 C 20.269531 19.007812 20.300781 18.988281 19.96875 18.980469 L 19.6875 18.976562 L 19.6875 19.707031 L 19.679688 20.4375 L 19.464844 20.441406 L 19.246094 20.445312 L 19.238281 18.984375 L 18.644531 18.96875 L 18.644531 18.628906 L 19.429688 18.621094 C 19.863281 18.617188 20.226562 18.613281 20.238281 18.613281 C 20.253906 18.613281 20.261719 18.644531 20.265625 18.769531 Z M 21.035156 19.527344 L 21.035156 20.445312 L 20.820312 20.445312 C 20.703125 20.445312 20.605469 20.441406 20.605469 20.433594 C 20.601562 20.363281 20.601562 18.722656 20.605469 18.679688 L 20.609375 18.625 L 20.785156 18.617188 C 20.878906 18.613281 20.972656 18.613281 20.992188 18.613281 L 21.03125 18.613281 Z M 22.03125 20.929688 C 22.195312 20.992188 22.238281 21.246094 22.117188 21.386719 C 21.976562 21.546875 21.765625 21.539062 21.652344 21.378906 L 21.613281 21.320312 L 16.355469 21.328125 L 16.363281 21.140625 L 18.980469 21.140625 L 21.597656 21.136719 L 21.644531 21.058594 C 21.730469 20.90625 21.863281 20.863281 22.03125 20.929688 Z M 22.03125 20.929688 "/>
<path style=" stroke:none;fill-rule:nonzero;fill:rgb(0%,0%,0%);fill-opacity:1;" d="M 13.269531 11.164062 C 13.265625 11.171875 13.257812 11.296875 13.257812 11.449219 L 13.257812 11.71875 L 13.429688 11.945312 C 13.898438 12.570312 13.988281 12.691406 14.132812 12.886719 C 14.21875 13.003906 14.386719 13.226562 14.503906 13.378906 C 14.621094 13.53125 14.804688 13.769531 14.910156 13.90625 C 15.015625 14.042969 15.164062 14.238281 15.246094 14.339844 C 15.324219 14.441406 15.433594 14.589844 15.488281 14.667969 C 15.546875 14.742188 15.644531 14.875 15.710938 14.957031 C 15.777344 15.035156 15.847656 15.128906 15.867188 15.15625 L 15.90625 15.207031 L 15.957031 15.132812 C 15.980469 15.09375 16.03125 15.023438 16.066406 14.984375 C 16.101562 14.945312 16.171875 14.855469 16.222656 14.785156 C 16.273438 14.714844 16.339844 14.632812 16.371094 14.601562 L 16.429688 14.539062 L 16.304688 14.378906 C 16.183594 14.222656 15.929688 13.894531 15.820312 13.75 C 15.792969 13.710938 15.699219 13.589844 15.617188 13.480469 C 15.535156 13.371094 15.414062 13.210938 15.34375 13.121094 C 15.277344 13.035156 15.15625 12.878906 15.074219 12.769531 C 14.992188 12.664062 14.871094 12.507812 14.808594 12.425781 C 14.742188 12.34375 14.582031 12.132812 14.449219 11.957031 C 13.957031 11.308594 13.886719 11.222656 13.816406 11.191406 C 13.765625 11.171875 13.285156 11.148438 13.269531 11.164062 Z M 13.269531 11.164062 "/>
<path style=" stroke:none;fill-rule:nonzero;fill:rgb(0%,0%,0%);fill-opacity:1;" d="M 15.628906 11.421875 C 15.578125 11.46875 15.570312 11.488281 15.570312 11.542969 C 15.570312 11.707031 15.75 11.808594 15.867188 11.710938 C 15.957031 11.632812 15.976562 11.539062 15.925781 11.457031 C 15.890625 11.394531 15.828125 11.363281 15.746094 11.363281 C 15.695312 11.363281 15.675781 11.371094 15.628906 11.421875 Z M 15.628906 11.421875 "/>
<path style=" stroke:none;fill-rule:nonzero;fill:rgb(0%,0%,0%);fill-opacity:1;" d="M 16.726562 11.992188 C 16.632812 12.074219 16.613281 12.164062 16.675781 12.257812 C 16.792969 12.429688 17.023438 12.355469 17.023438 12.144531 C 17.023438 11.992188 16.839844 11.898438 16.726562 11.992188 Z M 16.726562 11.992188 "/>
<path style=" stroke:none;fill-rule:nonzero;fill:rgb(0%,0%,0%);fill-opacity:1;" d="M 18.449219 12.535156 C 18.390625 12.621094 18.242188 12.816406 18.121094 12.976562 C 18.003906 13.132812 17.898438 13.273438 17.890625 13.289062 C 17.878906 13.300781 17.875 13.867188 17.878906 14.921875 L 17.882812 16.535156 L 18.5625 16.527344 L 18.566406 14.453125 C 18.570312 13.316406 18.566406 12.386719 18.5625 12.386719 C 18.558594 12.386719 18.507812 12.453125 18.449219 12.535156 Z M 18.449219 12.535156 "/>
<path style=" stroke:none;fill-rule:nonzero;fill:rgb(0%,0%,0%);fill-opacity:1;" d="M 11.980469 14.445312 C 11.886719 14.527344 11.875 14.640625 11.953125 14.714844 C 12.03125 14.789062 12.097656 14.804688 12.179688 14.761719 C 12.28125 14.707031 12.324219 14.585938 12.269531 14.496094 C 12.195312 14.390625 12.066406 14.367188 11.980469 14.445312 Z M 11.980469 14.445312 "/>
<path style=" stroke:none;fill-rule:nonzero;fill:rgb(0%,0%,0%);fill-opacity:1;" d="M 17.023438 15.136719 C 16.949219 15.183594 16.933594 15.21875 16.933594 15.304688 C 16.933594 15.421875 16.992188 15.480469 17.105469 15.480469 C 17.203125 15.480469 17.289062 15.40625 17.289062 15.320312 C 17.289062 15.265625 17.234375 15.175781 17.179688 15.140625 C 17.117188 15.105469 17.070312 15.101562 17.023438 15.136719 Z M 17.023438 15.136719 "/>
<path style=" stroke:none;fill-rule:nonzero;fill:rgb(0%,0%,0%);fill-opacity:1;" d="M 14.375 15.3125 C 14.289062 15.359375 14.234375 15.476562 14.265625 15.554688 C 14.289062 15.609375 14.359375 15.667969 14.421875 15.679688 C 14.515625 15.699219 14.621094 15.597656 14.621094 15.492188 C 14.621094 15.371094 14.472656 15.261719 14.375 15.3125 Z M 14.375 15.3125 "/>
<path style=" stroke:none;fill-rule:nonzero;fill:rgb(0%,0%,0%);fill-opacity:1;" d="M 11.832031 15.335938 C 11.746094 15.402344 11.742188 15.550781 11.832031 15.628906 C 11.921875 15.707031 12.0625 15.679688 12.109375 15.578125 C 12.152344 15.492188 12.128906 15.414062 12.042969 15.34375 C 11.984375 15.292969 11.890625 15.289062 11.832031 15.335938 Z M 11.832031 15.335938 "/>
<path style=" stroke:none;fill-rule:nonzero;fill:rgb(0%,0%,0%);fill-opacity:1;" d="M 22.359375 18.980469 C 22.140625 19.023438 21.976562 19.191406 21.941406 19.410156 C 21.894531 19.675781 22.007812 19.90625 22.234375 20.019531 C 22.324219 20.0625 22.34375 20.066406 22.464844 20.066406 C 22.570312 20.0625 22.605469 20.054688 22.671875 20.023438 C 22.839844 19.941406 22.929688 19.828125 22.96875 19.652344 C 23.015625 19.460938 22.96875 19.277344 22.84375 19.136719 C 22.765625 19.050781 22.707031 19.015625 22.578125 18.984375 C 22.484375 18.960938 22.449219 18.960938 22.359375 18.980469 Z M 22.359375 18.980469 "/>
<path style=" stroke:none;fill-rule:nonzero;fill:rgb(0%,0%,0%);fill-opacity:1;" d="M 11.539062 19.234375 C 11.515625 19.292969 11.464844 19.421875 11.421875 19.519531 C 11.382812 19.617188 11.347656 19.699219 11.347656 19.707031 C 11.347656 19.714844 11.460938 19.71875 11.59375 19.71875 C 11.820312 19.71875 11.839844 19.71875 11.832031 19.691406 C 11.808594 19.613281 11.601562 19.132812 11.589844 19.128906 C 11.582031 19.128906 11.558594 19.171875 11.539062 19.234375 Z M 11.539062 19.234375 "/>
<path style=" stroke:none;fill-rule:nonzero;fill:rgb(0%,0%,0%);fill-opacity:1;" d="M 13.378906 19.269531 L 13.386719 19.5625 L 13.605469 19.5625 C 13.808594 19.5625 13.835938 19.558594 13.898438 19.527344 C 14 19.480469 14.050781 19.398438 14.054688 19.273438 C 14.0625 19.191406 14.054688 19.171875 14.027344 19.125 C 14.007812 19.097656 13.964844 19.054688 13.925781 19.03125 L 13.863281 18.984375 L 13.378906 18.976562 Z M 13.378906 19.269531 "/>
</g>
</svg>
